<?xml version="1.0" encoding="UTF-8" ?>
<svg version="1.1" width="30" height="24" xmlns="http://www.w3.org/2000/svg" shape-rendering="crispEdges">
<rect x="1" y="0" width="13" height="1" fill="#060608" />
<rect x="17" y="0" width="11" height="1" fill="#000000" />
<rect x="0" y="1" width="1" height="22" fill="#060608" />
<rect x="1" y="1" width="13" height="4" fill="#D11299" />
<rect x="14" y="1" width="1" height="1" fill="#000000" />
<rect x="16" y="1" width="1" height="1" fill="#000000" />
<rect x="17" y="1" width="11" height="4" fill="#D11299" />
<rect x="28" y="1" width="1" height="1" fill="#000000" />
<rect x="14" y="2" width="1" height="10" fill="#D11299" />
<rect x="15" y="2" width="1" height="21" fill="#060608" />
<rect x="16" y="2" width="1" height="20" fill="#D11299" />
<rect x="28" y="2" width="1" height="6" fill="#D11299" />
<rect x="29" y="2" width="1" height="6" fill="#060608" />
<rect x="1" y="5" width="5" height="18" fill="#D11299" />
<rect x="6" y="5" width="4" height="1" fill="#060608" />
<rect x="10" y="5" width="4" height="18" fill="#D11299" />
<rect x="17" y="5" width="3" height="18" fill="#D11299" />
<rect x="20" y="5" width="5" height="1" fill="#060608" />
<rect x="25" y="5" width="3" height="3" fill="#D11299" />
<rect x="6" y="6" width="1" height="4" fill="#060608" />
<rect x="9" y="6" width="1" height="4" fill="#060608" />
<rect x="20" y="6" width="1" height="13" fill="#060608" />
<rect x="24" y="6" width="1" height="3" fill="#060608" />
<rect x="25" y="8" width="4" height="1" fill="#060608" />
<rect x="7" y="9" width="2" height="1" fill="#060608" />
<rect x="6" y="10" width="4" height="5" fill="#D11299" />
<rect x="22" y="11" width="7" height="1" fill="#060608" />
<rect x="14" y="12" width="1" height="1" fill="#060608" />
<rect x="22" y="12" width="1" height="5" fill="#000000" />
<rect x="23" y="12" width="6" height="4" fill="#D11299" />
<rect x="29" y="12" width="1" height="10" fill="#000000" />
<rect x="14" y="13" width="1" height="10" fill="#D11299" />
<rect x="6" y="15" width="4" height="1" fill="#060608" />
<rect x="6" y="16" width="1" height="8" fill="#060608" />
<rect x="9" y="16" width="1" height="8" fill="#060608" />
<rect x="23" y="16" width="2" height="1" fill="#000000" />
<rect x="25" y="16" width="4" height="6" fill="#D11299" />
<rect x="24" y="17" width="1" height="2" fill="#060608" />
<rect x="21" y="18" width="3" height="1" fill="#060608" />
<rect x="20" y="19" width="5" height="4" fill="#D11299" />
<rect x="16" y="22" width="1" height="1" fill="#060608" />
<rect x="25" y="22" width="3" height="1" fill="#D11299" />
<rect x="28" y="22" width="1" height="1" fill="#000000" />
<rect x="1" y="23" width="5" height="1" fill="#060608" />
<rect x="10" y="23" width="5" height="1" fill="#060608" />
<rect x="17" y="23" width="11" height="1" fill="#000000" />
</svg>